<svg xmlns="http://www.w3.org/2000/svg" xmlns:xlink="http://www.w3.org/1999/xlink" style="width:1231px;height:1522px;background:#fff" width="1231" height="1522" contentStyleType="text/css" preserveAspectRatio="none" version="1.1" viewBox="0 0 1231 1522" zoomAndPan="magnify"><g><text x="321.039" y="28.535" fill="#000" font-family="sans-serif" font-size="14" font-weight="bold" lengthAdjust="spacing" textLength="581.02">SmartDerivativeContract with Settlement-Token and off-chain Valuation Service</text><rect style="stroke:#181818;stroke-width:1" width="10" height="1304.022" x="31.139" y="128.977" fill="#FFF"/><rect style="stroke:#181818;stroke-width:1" width="10" height="1304.022" x="73.416" y="128.977" fill="#FFF"/><rect style="stroke:#181818;stroke-width:1" width="10" height="1199.779" x="290.482" y="233.219" fill="#FFF"/><rect style="stroke:#181818;stroke-width:1" width="10" height="1304.022" x="835.596" y="128.977" fill="#FFF"/><rect style="stroke:#181818;stroke-width:1" width="10" height="1304.022" x="961.711" y="128.977" fill="#FFF"/><rect style="stroke:#181818;stroke-width:1" width="10" height="1304.022" x="1136.47" y="128.977" fill="#FFF"/><rect style="stroke:#000;stroke-width:1.5" width="1018.538" height="570.59" x="10" y="135.977" fill="none"/><rect style="stroke:#000;stroke-width:1.5" width="1204.098" height="704.432" x="10" y="720.566" fill="none"/><rect style="stroke:#000;stroke-width:1.5" width="763.912" height="339.016" x="264.626" y="1078.982" fill="none"/><line style="stroke:#181818;stroke-width:.5;stroke-dasharray:5,5" x1="36" x2="36" y1="118.977" y2="1441.998"/><line style="stroke:#181818;stroke-width:.5;stroke-dasharray:5,5" x1="78.277" x2="78.277" y1="118.977" y2="1441.998"/><line style="stroke:#181818;stroke-width:.5;stroke-dasharray:5,5" x1="294.626" x2="294.626" y1="118.977" y2="1441.998"/><line style="stroke:#181818;stroke-width:.5;stroke-dasharray:5,5" x1="840.307" x2="840.307" y1="118.977" y2="1441.998"/><line style="stroke:#181818;stroke-width:.5;stroke-dasharray:5,5" x1="965.884" x2="965.884" y1="118.977" y2="1441.998"/><line style="stroke:#181818;stroke-width:.5;stroke-dasharray:5,5" x1="1140.843" x2="1140.843" y1="118.977" y2="1441.998"/><text x="20" y="116.023" fill="#000" font-family="sans-serif" font-size="14" lengthAdjust="spacing" textLength="26.277">CP1</text><ellipse cx="36.139" cy="50.988" fill="#E2E2F0" rx="8" ry="8" style="stroke:#181818;stroke-width:.5"/><path fill="none" d="M36.1387,58.9883 L36.1387,85.9883 M23.1387,66.9883 L49.1387,66.9883 M36.1387,85.9883 L23.1387,100.9883 M36.1387,85.9883 L49.1387,100.9883" style="stroke:#181818;stroke-width:.5"/><text x="20" y="1454.533" fill="#000" font-family="sans-serif" font-size="14" lengthAdjust="spacing" textLength="26.277">CP1</text><ellipse cx="36.139" cy="1465.986" fill="#E2E2F0" rx="8" ry="8" style="stroke:#181818;stroke-width:.5"/><path fill="none" d="M36.1387,1473.9863 L36.1387,1500.9863 M23.1387,1481.9863 L49.1387,1481.9863 M36.1387,1500.9863 L23.1387,1515.9863 M36.1387,1500.9863 L49.1387,1515.9863" style="stroke:#181818;stroke-width:.5"/><text x="62.277" y="116.023" fill="#000" font-family="sans-serif" font-size="14" lengthAdjust="spacing" textLength="26.277">CP2</text><ellipse cx="78.416" cy="50.988" fill="#E2E2F0" rx="8" ry="8" style="stroke:#181818;stroke-width:.5"/><path fill="none" d="M78.416,58.9883 L78.416,85.9883 M65.416,66.9883 L91.416,66.9883 M78.416,85.9883 L65.416,100.9883 M78.416,85.9883 L91.416,100.9883" style="stroke:#181818;stroke-width:.5"/><text x="62.277" y="1454.533" fill="#000" font-family="sans-serif" font-size="14" lengthAdjust="spacing" textLength="26.277">CP2</text><ellipse cx="78.416" cy="1465.986" fill="#E2E2F0" rx="8" ry="8" style="stroke:#181818;stroke-width:.5"/><path fill="none" d="M78.416,1473.9863 L78.416,1500.9863 M65.416,1481.9863 L91.416,1481.9863 M78.416,1500.9863 L65.416,1515.9863 M78.416,1500.9863 L91.416,1515.9863" style="stroke:#181818;stroke-width:.5"/><rect style="stroke:#181818;stroke-width:.5" width="41.713" height="30.488" x="274.626" y="87.488" fill="#E2E2F0" rx="2.5" ry="2.5"/><text x="281.626" y="108.023" fill="#000" font-family="sans-serif" font-size="14" lengthAdjust="spacing" textLength="27.713">SDC</text><rect style="stroke:#181818;stroke-width:.5" width="41.713" height="30.488" x="274.626" y="1440.998" fill="#E2E2F0" rx="2.5" ry="2.5"/><text x="281.626" y="1461.533" fill="#000" font-family="sans-serif" font-size="14" lengthAdjust="spacing" textLength="27.713">SDC</text><rect style="stroke:#181818;stroke-width:.5" width="128.577" height="30.488" x="776.307" y="87.488" fill="#E2E2F0" rx="2.5" ry="2.5"/><text x="783.307" y="108.023" fill="#000" font-family="sans-serif" font-size="14" lengthAdjust="spacing" textLength="114.577">SettlementToken</text><rect style="stroke:#181818;stroke-width:.5" width="128.577" height="30.488" x="776.307" y="1440.998" fill="#E2E2F0" rx="2.5" ry="2.5"/><text x="783.307" y="1461.533" fill="#000" font-family="sans-serif" font-size="14" lengthAdjust="spacing" textLength="114.577">SettlementToken</text><rect style="stroke:#181818;stroke-width:.5" width="103.653" height="30.488" x="914.884" y="87.488" fill="#E2E2F0" rx="2.5" ry="2.5"/><text x="921.884" y="108.023" fill="#000" font-family="sans-serif" font-size="14" lengthAdjust="spacing" textLength="89.653">EventHandler</text><rect style="stroke:#181818;stroke-width:.5" width="103.653" height="30.488" x="914.884" y="1440.998" fill="#E2E2F0" rx="2.5" ry="2.5"/><text x="921.884" y="1461.533" fill="#000" font-family="sans-serif" font-size="14" lengthAdjust="spacing" textLength="89.653">EventHandler</text><rect style="stroke:#181818;stroke-width:.5" width="125.255" height="30.488" x="1078.843" y="87.488" fill="#E2E2F0" rx="2.5" ry="2.5"/><text x="1085.843" y="108.023" fill="#000" font-family="sans-serif" font-size="14" lengthAdjust="spacing" textLength="111.255">ValuationService</text><rect style="stroke:#181818;stroke-width:.5" width="125.255" height="30.488" x="1078.843" y="1440.998" fill="#E2E2F0" rx="2.5" ry="2.5"/><text x="1085.843" y="1461.533" fill="#000" font-family="sans-serif" font-size="14" lengthAdjust="spacing" textLength="111.255">ValuationService</text><rect style="stroke:#181818;stroke-width:1" width="10" height="1304.022" x="31.139" y="128.977" fill="#FFF"/><rect style="stroke:#181818;stroke-width:1" width="10" height="1304.022" x="73.416" y="128.977" fill="#FFF"/><rect style="stroke:#181818;stroke-width:1" width="10" height="1199.779" x="290.482" y="233.219" fill="#FFF"/><rect style="stroke:#181818;stroke-width:1" width="10" height="1304.022" x="835.596" y="128.977" fill="#FFF"/><rect style="stroke:#181818;stroke-width:1" width="10" height="1304.022" x="961.711" y="128.977" fill="#FFF"/><rect style="stroke:#181818;stroke-width:1" width="10" height="1304.022" x="1136.47" y="128.977" fill="#FFF"/><path fill="#EEE" d="M10,135.9766 L156.0039,135.9766 L156.0039,143.2871 L146.0039,153.2871 L10,153.2871 L10,135.9766" style="stroke:#000;stroke-width:1.5"/><rect style="stroke:#000;stroke-width:1.5" width="1018.538" height="570.59" x="10" y="135.977" fill="none"/><text x="25" y="149.545" fill="#000" font-family="sans-serif" font-size="13" font-weight="bold" lengthAdjust="spacing" textLength="101.004">Initialize Trade</text><polygon fill="#181818" points="823.596 170.598 833.596 174.598 823.596 178.598 827.596 174.598" style="stroke:#181818;stroke-width:1"/><line style="stroke:#181818;stroke-width:1" x1="41.139" x2="829.596" y1="174.598" y2="174.598"/><text x="48.139" y="169.856" fill="#000" font-family="sans-serif" font-size="13" lengthAdjust="spacing" textLength="107.631">allocate balances</text><polygon fill="#181818" points="823.596 199.908 833.596 203.908 823.596 207.908 827.596 203.908" style="stroke:#181818;stroke-width:1"/><line style="stroke:#181818;stroke-width:1" x1="83.416" x2="829.596" y1="203.908" y2="203.908"/><text x="90.416" y="199.166" fill="#000" font-family="sans-serif" font-size="13" lengthAdjust="spacing" textLength="107.631">allocate balances</text><polygon fill="#181818" points="278.482 229.219 288.482 233.219 278.482 237.219 282.482 233.219" style="stroke:#181818;stroke-width:1"/><line style="stroke:#181818;stroke-width:1" x1="41.139" x2="284.482" y1="233.219" y2="233.219"/><text x="48.139" y="228.477" fill="#000" font-family="sans-serif" font-size="13" lengthAdjust="spacing" textLength="230.344">tx &apos;deploy&apos; a SDC with token address</text><polygon fill="#181818" points="278.482 258.529 288.482 262.529 278.482 266.529 282.482 262.529" style="stroke:#181818;stroke-width:1"/><line style="stroke:#181818;stroke-width:1" x1="41.139" x2="284.482" y1="262.529" y2="262.529"/><text x="48.139" y="257.787" fill="#000" font-family="sans-serif" font-size="13" lengthAdjust="spacing" textLength="97.817">tx &apos;inceptTrade&apos;</text><polygon fill="#181818" points="949.711 287.84 959.711 291.84 949.711 295.84 953.711 291.84" style="stroke:#181818;stroke-width:1"/><line style="stroke:#181818;stroke-width:1;stroke-dasharray:2,2" x1="300.482" x2="955.711" y1="291.84" y2="291.84"/><text x="307.482" y="287.098" fill="#000" font-family="sans-serif" font-size="13" lengthAdjust="spacing" textLength="122.44">emit TradeIncepted</text><rect style="stroke:#eee;stroke-width:1" width="1224.098" height="3" x="0" y="320.495" fill="#EEE"/><line style="stroke:#000;stroke-width:1" x1="0" x2="1224.098" y1="320.495" y2="320.495"/><line style="stroke:#000;stroke-width:1" x1="0" x2="1224.098" y1="323.495" y2="323.495"/><rect style="stroke:#000;stroke-width:2" width="158.466" height="23.311" x="532.816" y="309.84" fill="#EEE"/><text x="538.816" y="326.408" fill="#000" font-family="sans-serif" font-size="13" font-weight="bold" lengthAdjust="spacing" textLength="140.182">TradeState &apos;Incepted&apos;</text><polygon fill="#181818" points="278.482 360.461 288.482 364.461 278.482 368.461 282.482 364.461" style="stroke:#181818;stroke-width:1"/><line style="stroke:#181818;stroke-width:1" x1="83.416" x2="284.482" y1="364.461" y2="364.461"/><text x="90.416" y="359.719" fill="#000" font-family="sans-serif" font-size="13" lengthAdjust="spacing" textLength="107.751">tx &apos;confirmTrade&apos;</text><line style="stroke:#181818;stroke-width:1" x1="300.482" x2="342.482" y1="393.772" y2="393.772"/><line style="stroke:#181818;stroke-width:1" x1="342.482" x2="342.482" y1="393.772" y2="406.772"/><line style="stroke:#181818;stroke-width:1" x1="301.482" x2="342.482" y1="406.772" y2="406.772"/><polygon fill="#181818" points="311.482 402.772 301.482 406.772 311.482 410.772 307.482 406.772" style="stroke:#181818;stroke-width:1"/><text x="307.482" y="389.029" fill="#000" font-family="sans-serif" font-size="13" lengthAdjust="spacing" textLength="113.191">validate tradedata</text><polygon fill="#181818" points="949.711 432.082 959.711 436.082 949.711 440.082 953.711 436.082" style="stroke:#181818;stroke-width:1"/><line style="stroke:#181818;stroke-width:1;stroke-dasharray:2,2" x1="300.482" x2="955.711" y1="436.082" y2="436.082"/><text x="307.482" y="431.34" fill="#000" font-family="sans-serif" font-size="13" lengthAdjust="spacing" textLength="134.723">emit TradeConfirmed</text><rect style="stroke:#eee;stroke-width:1" width="1224.098" height="3" x="0" y="464.737" fill="#EEE"/><line style="stroke:#000;stroke-width:1" x1="0" x2="1224.098" y1="464.737" y2="464.737"/><line style="stroke:#000;stroke-width:1" x1="0" x2="1224.098" y1="467.737" y2="467.737"/><rect style="stroke:#000;stroke-width:2" width="171.435" height="23.311" x="526.332" y="454.082" fill="#EEE"/><text x="532.332" y="470.65" fill="#000" font-family="sans-serif" font-size="13" font-weight="bold" lengthAdjust="spacing" textLength="153.15">TradeState &apos;Confirmed&apos;</text><polygon fill="#181818" points="823.596 520.014 833.596 524.014 823.596 528.014 827.596 524.014" style="stroke:#181818;stroke-width:1"/><line style="stroke:#181818;stroke-width:1" x1="300.482" x2="829.596" y1="524.014" y2="524.014"/><text x="307.482" y="503.961" fill="#000" font-family="sans-serif" font-size="13" lengthAdjust="spacing" textLength="337.403">tx &apos;transferFrom&apos; margin buffers and termination fees</text><text x="307.482" y="519.271" fill="#000" font-family="sans-serif" font-size="13" lengthAdjust="spacing" textLength="202.935">to SDC address for CP1 and CP2</text><polygon fill="#181818" points="823.596 549.324 833.596 553.324 823.596 557.324 827.596 553.324" style="stroke:#181818;stroke-width:1"/><line style="stroke:#181818;stroke-width:1" x1="300.482" x2="829.596" y1="553.324" y2="553.324"/><text x="307.482" y="548.582" fill="#000" font-family="sans-serif" font-size="13" lengthAdjust="spacing" textLength="434.332">tx &apos;transferFrom&apos; optional Upfront Fee from Paying to Receiving Party</text><rect style="stroke:#eee;stroke-width:1" width="1224.098" height="3" x="0" y="581.98" fill="#EEE"/><line style="stroke:#000;stroke-width:1" x1="0" x2="1224.098" y1="581.98" y2="581.98"/><line style="stroke:#000;stroke-width:1" x1="0" x2="1224.098" y1="584.98" y2="584.98"/><rect style="stroke:#000;stroke-width:2" width="171.06" height="23.311" x="526.519" y="571.324" fill="#EEE"/><text x="532.519" y="587.893" fill="#000" font-family="sans-serif" font-size="13" font-weight="bold" lengthAdjust="spacing" textLength="152.775">TradeState &apos;inTransfer&apos;</text><polygon fill="#181818" points="311.482 621.945 301.482 625.945 311.482 629.945 307.482 625.945" style="stroke:#181818;stroke-width:1"/><line style="stroke:#181818;stroke-width:1" x1="305.482" x2="834.596" y1="625.945" y2="625.945"/><text x="317.482" y="621.203" fill="#000" font-family="sans-serif" font-size="13" lengthAdjust="spacing" textLength="160.126">callback tx &apos;afterTransfer&apos;</text><polygon fill="#181818" points="949.711 651.256 959.711 655.256 949.711 659.256 953.711 655.256" style="stroke:#181818;stroke-width:1"/><line style="stroke:#181818;stroke-width:1;stroke-dasharray:2,2" x1="300.482" x2="955.711" y1="655.256" y2="655.256"/><text x="307.482" y="650.514" fill="#000" font-family="sans-serif" font-size="13" lengthAdjust="spacing" textLength="126.699">emit TradeActivated</text><rect style="stroke:#eee;stroke-width:1" width="1224.098" height="3" x="0" y="683.911" fill="#EEE"/><line style="stroke:#000;stroke-width:1" x1="0" x2="1224.098" y1="683.911" y2="683.911"/><line style="stroke:#000;stroke-width:1" x1="0" x2="1224.098" y1="686.911" y2="686.911"/><rect style="stroke:#000;stroke-width:2" width="159.679" height="23.311" x="532.21" y="673.256" fill="#EEE"/><text x="538.21" y="689.824" fill="#000" font-family="sans-serif" font-size="13" font-weight="bold" lengthAdjust="spacing" textLength="141.394">ProcessState &apos;Settled&apos;</text><path fill="#EEE" d="M10,720.5664 L84.4468,720.5664 L84.4468,727.877 L74.4468,737.877 L10,737.877 L10,720.5664" style="stroke:#000;stroke-width:1.5"/><rect style="stroke:#000;stroke-width:1.5" width="1204.098" height="704.432" x="10" y="720.566" fill="none"/><text x="25" y="734.135" fill="#000" font-family="sans-serif" font-size="13" font-weight="bold" lengthAdjust="spacing" textLength="29.447">loop</text><text x="99.447" y="733.201" fill="#000" font-family="sans-serif" font-size="11" font-weight="bold" lengthAdjust="spacing" textLength="103.232">[Every Settlement]</text><polygon fill="#181818" points="278.482 755.188 288.482 759.188 278.482 763.188 282.482 759.188" style="stroke:#181818;stroke-width:1"/><line style="stroke:#181818;stroke-width:1" x1="41.139" x2="284.482" y1="759.188" y2="759.188"/><text x="48.139" y="754.445" fill="#000" font-family="sans-serif" font-size="13" lengthAdjust="spacing" textLength="137.782">tx: &apos;initiateSettlement&apos;</text><rect style="stroke:#eee;stroke-width:1" width="1224.098" height="3" x="0" y="787.843" fill="#EEE"/><line style="stroke:#000;stroke-width:1" x1="0" x2="1224.098" y1="787.843" y2="787.843"/><line style="stroke:#000;stroke-width:1" x1="0" x2="1224.098" y1="790.843" y2="790.843"/><rect style="stroke:#000;stroke-width:2" width="164.44" height="23.311" x="529.829" y="777.188" fill="#EEE"/><text x="535.829" y="793.756" fill="#000" font-family="sans-serif" font-size="13" font-weight="bold" lengthAdjust="spacing" textLength="146.155">TradeState &apos;Valuation&apos;</text><polygon fill="#181818" points="949.711 827.809 959.711 831.809 949.711 835.809 953.711 831.809" style="stroke:#181818;stroke-width:1"/><line style="stroke:#181818;stroke-width:1;stroke-dasharray:2,2" x1="300.482" x2="955.711" y1="831.809" y2="831.809"/><text x="307.482" y="827.066" fill="#000" font-family="sans-serif" font-size="13" lengthAdjust="spacing" textLength="165.261">emit SettlementRequested</text><polygon fill="#181818" points="1124.47 857.119 1134.47 861.119 1124.47 865.119 1128.47 861.119" style="stroke:#181818;stroke-width:1"/><line style="stroke:#181818;stroke-width:1" x1="971.711" x2="1130.47" y1="861.119" y2="861.119"/><text x="978.711" y="856.377" fill="#000" font-family="sans-serif" font-size="13" lengthAdjust="spacing" textLength="140.759">request valuation data</text><polygon fill="#181818" points="982.711 886.43 972.711 890.43 982.711 894.43 978.711 890.43" style="stroke:#181818;stroke-width:1"/><line style="stroke:#181818;stroke-width:1" x1="976.711" x2="1135.47" y1="890.43" y2="890.43"/><text x="988.711" y="885.688" fill="#000" font-family="sans-serif" font-size="13" lengthAdjust="spacing" textLength="132.095">return valuation data</text><polygon fill="#181818" points="311.482 915.74 301.482 919.74 311.482 923.74 307.482 919.74" style="stroke:#181818;stroke-width:1"/><line style="stroke:#181818;stroke-width:1" x1="305.482" x2="960.711" y1="919.74" y2="919.74"/><text x="317.482" y="914.998" fill="#000" font-family="sans-serif" font-size="13" lengthAdjust="spacing" textLength="200.345">callback: tx &apos;performSettlement&apos;</text><line style="stroke:#181818;stroke-width:1" x1="300.482" x2="342.482" y1="949.051" y2="949.051"/><line style="stroke:#181818;stroke-width:1" x1="342.482" x2="342.482" y1="949.051" y2="962.051"/><line style="stroke:#181818;stroke-width:1" x1="301.482" x2="342.482" y1="962.051" y2="962.051"/><polygon fill="#181818" points="311.482 958.051 301.482 962.051 311.482 966.051 307.482 962.051" style="stroke:#181818;stroke-width:1"/><text x="307.482" y="944.309" fill="#000" font-family="sans-serif" font-size="13" lengthAdjust="spacing" textLength="298.27">Caps Settlement Amount at Margin Buffer Level</text><polygon fill="#181818" points="949.711 987.361 959.711 991.361 949.711 995.361 953.711 991.361" style="stroke:#181818;stroke-width:1"/><line style="stroke:#181818;stroke-width:1;stroke-dasharray:2,2" x1="300.482" x2="955.711" y1="991.361" y2="991.361"/><text x="307.482" y="986.619" fill="#000" font-family="sans-serif" font-size="13" lengthAdjust="spacing" textLength="173.183">emit SettlementDetermined</text><polygon fill="#181818" points="823.596 1016.672 833.596 1020.672 823.596 1024.672 827.596 1020.672" style="stroke:#181818;stroke-width:1"/><line style="stroke:#181818;stroke-width:1" x1="300.482" x2="829.596" y1="1020.672" y2="1020.672"/><text x="307.482" y="1015.93" fill="#000" font-family="sans-serif" font-size="13" lengthAdjust="spacing" textLength="511.113">tx &apos;transferFrom&apos; settlement amount from Paying Party to Receiving Party Balance</text><rect style="stroke:#eee;stroke-width:1" width="1224.098" height="3" x="0" y="1049.327" fill="#EEE"/><line style="stroke:#000;stroke-width:1" x1="0" x2="1224.098" y1="1049.327" y2="1049.327"/><line style="stroke:#000;stroke-width:1" x1="0" x2="1224.098" y1="1052.327" y2="1052.327"/><rect style="stroke:#000;stroke-width:2" width="171.06" height="23.311" x="526.519" y="1038.672" fill="#EEE"/><text x="532.519" y="1055.24" fill="#000" font-family="sans-serif" font-size="13" font-weight="bold" lengthAdjust="spacing" textLength="152.775">TradeState &apos;inTransfer&apos;</text><path fill="#EEE" d="M264.626,1078.9824 L326.7646,1078.9824 L326.7646,1086.293 L316.7646,1096.293 L264.626,1096.293 L264.626,1078.9824" style="stroke:#000;stroke-width:1.5"/><rect style="stroke:#000;stroke-width:1.5" width="763.912" height="339.016" x="264.626" y="1078.982" fill="none"/><text x="279.626" y="1092.551" fill="#000" font-family="sans-serif" font-size="13" font-weight="bold" lengthAdjust="spacing" textLength="17.139">alt</text><text x="341.765" y="1091.617" fill="#000" font-family="sans-serif" font-size="11" font-weight="bold" lengthAdjust="spacing" textLength="94.606">[Transfer Check]</text><polygon fill="#181818" points="311.482 1113.603 301.482 1117.603 311.482 1121.603 307.482 1117.603" style="stroke:#181818;stroke-width:1"/><line style="stroke:#181818;stroke-width:1" x1="305.482" x2="834.596" y1="1117.603" y2="1117.603"/><text x="317.482" y="1112.861" fill="#000" font-family="sans-serif" font-size="13" lengthAdjust="spacing" textLength="160.126">callback tx &apos;afterTransfer&apos;</text><line style="stroke:#000;stroke-width:1;stroke-dasharray:2,2" x1="264.626" x2="1028.538" y1="1126.603" y2="1126.603"/><text x="269.626" y="1137.238" fill="#000" font-family="sans-serif" font-size="11" font-weight="bold" lengthAdjust="spacing" textLength="52.191">[success]</text><polygon fill="#181818" points="949.711 1157.869 959.711 1161.869 949.711 1165.869 953.711 1161.869" style="stroke:#181818;stroke-width:1"/><line style="stroke:#181818;stroke-width:1;stroke-dasharray:2,2" x1="300.482" x2="955.711" y1="1161.869" y2="1161.869"/><text x="307.482" y="1157.127" fill="#000" font-family="sans-serif" font-size="13" lengthAdjust="spacing" textLength="172.891">emit SettlementTransferred</text><rect style="stroke:#eee;stroke-width:1" width="1224.098" height="3" x="0" y="1190.524" fill="#EEE"/><line style="stroke:#000;stroke-width:1" x1="0" x2="1224.098" y1="1190.524" y2="1190.524"/><line style="stroke:#000;stroke-width:1" x1="0" x2="1224.098" y1="1193.524" y2="1193.524"/><rect style="stroke:#000;stroke-width:2" width="147.009" height="23.311" x="538.544" y="1179.869" fill="#EEE"/><text x="544.544" y="1196.438" fill="#000" font-family="sans-serif" font-size="13" font-weight="bold" lengthAdjust="spacing" textLength="128.724">TradeState &apos;Settled&apos;</text><line style="stroke:#000;stroke-width:1;stroke-dasharray:2,2" x1="264.626" x2="1028.538" y1="1214.18" y2="1214.18"/><text x="269.626" y="1224.814" fill="#000" font-family="sans-serif" font-size="11" font-weight="bold" lengthAdjust="spacing" textLength="26.334">[fail]</text><polygon fill="#181818" points="949.711 1245.445 959.711 1249.445 949.711 1253.445 953.711 1249.445" style="stroke:#181818;stroke-width:1"/><line style="stroke:#181818;stroke-width:1;stroke-dasharray:2,2" x1="300.482" x2="955.711" y1="1249.445" y2="1249.445"/><text x="307.482" y="1244.703" fill="#000" font-family="sans-serif" font-size="13" lengthAdjust="spacing" textLength="136.481">emit SettlementFailed</text><polygon fill="#181818" points="823.596 1274.756 833.596 1278.756 823.596 1282.756 827.596 1278.756" style="stroke:#181818;stroke-width:1"/><line style="stroke:#181818;stroke-width:1" x1="300.482" x2="829.596" y1="1278.756" y2="1278.756"/><text x="307.482" y="1274.014" fill="#000" font-family="sans-serif" font-size="13" lengthAdjust="spacing" textLength="430.06">tx &apos;transfer&apos; Settlement Amount from SDC Balance to Receiving Party</text><polygon fill="#181818" points="823.596 1304.066 833.596 1308.066 823.596 1312.066 827.596 1308.066" style="stroke:#181818;stroke-width:1"/><line style="stroke:#181818;stroke-width:1" x1="300.482" x2="829.596" y1="1308.066" y2="1308.066"/><text x="307.482" y="1303.324" fill="#000" font-family="sans-serif" font-size="13" lengthAdjust="spacing" textLength="410.744">tx &apos;transfer&apos; Termination Fee from SDC Balance to Receiving Party</text><polygon fill="#181818" points="823.596 1333.377 833.596 1337.377 823.596 1341.377 827.596 1337.377" style="stroke:#181818;stroke-width:1"/><line style="stroke:#181818;stroke-width:1" x1="300.482" x2="829.596" y1="1337.377" y2="1337.377"/><text x="307.482" y="1332.635" fill="#000" font-family="sans-serif" font-size="13" lengthAdjust="spacing" textLength="317.789">tx &apos;transfer&apos; - Release remainigBalances to parties</text><polygon fill="#181818" points="949.711 1362.688 959.711 1366.688 949.711 1370.688 953.711 1366.688" style="stroke:#181818;stroke-width:1"/><line style="stroke:#181818;stroke-width:1;stroke-dasharray:2,2" x1="300.482" x2="955.711" y1="1366.688" y2="1366.688"/><text x="307.482" y="1361.945" fill="#000" font-family="sans-serif" font-size="13" lengthAdjust="spacing" textLength="140.467">emit TradeTerminated</text><rect style="stroke:#eee;stroke-width:1" width="1224.098" height="3" x="0" y="1395.343" fill="#EEE"/><line style="stroke:#000;stroke-width:1" x1="0" x2="1224.098" y1="1395.343" y2="1395.343"/><line style="stroke:#000;stroke-width:1" x1="0" x2="1224.098" y1="1398.343" y2="1398.343"/><rect style="stroke:#000;stroke-width:2" width="177.979" height="23.311" x="523.059" y="1384.688" fill="#EEE"/><text x="529.059" y="1401.256" fill="#000" font-family="sans-serif" font-size="13" font-weight="bold" lengthAdjust="spacing" textLength="159.694">TradeState &apos;Terminated&apos;</text></g></svg>